<svg width="64" height="64" viewBox="0 0 64 64" fill="none" xmlns="http://www.w3.org/2000/svg">
<path d="M58.6666 29.5466V32C58.6633 37.7504 56.8013 43.3458 53.3581 47.9515C49.915 52.5572 45.0753 55.9266 39.5609 57.557C34.0464 59.1875 28.1526 58.9917 22.7585 56.9989C17.3644 55.006 12.759 51.3229 9.62915 46.4988C6.4993 41.6747 5.0127 35.9682 5.39106 30.2302C5.76942 24.4922 7.99247 19.0302 11.7287 14.6588C15.4649 10.2875 20.514 7.241 26.1231 5.97371C31.7322 4.70641 37.6006 5.28622 42.8533 7.62665" stroke="#CB3434" stroke-width="4" stroke-linecap="round" stroke-linejoin="round"/>
<path d="M29.5618 5.31808H32.0152C37.7656 5.32137 43.361 7.18342 47.9667 10.6265C52.5724 14.0696 55.9418 18.9093 57.5722 24.4238C59.2027 29.9383 59.0069 35.8321 57.0141 41.2262C55.0212 46.6203 51.3381 51.2257 46.514 54.3555C41.6899 57.4854 35.9834 58.972 30.2454 58.5936C24.5074 58.2153 19.0454 55.9922 14.674 52.256C10.3027 48.5198 7.2562 43.4707 5.9889 37.8616C4.72161 32.2525 5.30141 26.384 7.64185 21.1314" stroke="#CB3434" stroke-width="4" stroke-linecap="round" stroke-linejoin="round"/>
<path d="M44 20L19 45" stroke="#CB3434" stroke-width="4" stroke-linecap="round" stroke-linejoin="round"/>
<path d="M19 20L44 45" stroke="#CB3434" stroke-width="4" stroke-linecap="round" stroke-linejoin="round"/>
</svg>
